<svg xmlns="http://www.w3.org/2000/svg" xmlns:xlink="http://www.w3.org/1999/xlink">
  <symbol viewBox="-0.8 -0.8 17.6 17.6" id="icon-search">
    <path d="M16.47 14.93l-3.42-3.42a7.7 7.7 0 10-1.54 1.54l3.42
    3.42c.2.2.42.33.77.33.6 0 1.1-.5 1.1-1.1 0-.24-.06-.5-.33-.77zM1.4
    6.9a5.5 5.5 0 1111 0 5.5 5.5 0 01-11 0z"></path>
  </symbol>
  <symbol viewBox="264.205 370.961 20.294 18.849" id="icon-cart">
    <path d="M283.75 378.19h-3.15l-3.4-6.81a.75.75 0 10-1.35.67l3.07
    6.14h-9.14l3.08-6.14a.75.75 0 00-1.34-.67l-3.41 6.81h-3.15a.75.75
    0 000 1.5h.15l.86 3a.74.74 0 00-.32.59c0 .4.31.7.7.74l1.66
    5.79h12.7l1.65-5.8c.39-.02.7-.34.7-.73a.74.74 0 00-.32-.6l.86-3h.15a.75.75
    0 100-1.49zm-4.18 10.12h-10.43l-1.23-4.28h12.88l-1.22
    4.28zm1.65-5.78h-13.74l-.8-2.84h15.35l-.8 2.84z"></path>
  </symbol>
  <symbol viewBox="-259.4 -19.68 40.22 62.41" id="icon-interior">
    <g>
      <path d="M-244.23 18.28c-.28.97-.24 2.2.03 3.64.5 2.64 1.69 6.04 2.36 9.67h5.06c.7-3.64 1.95-7.05
      2.47-9.68.29-1.45.33-2.66.04-3.62-.27-.9-.89-1.62-2.02-2.3h-6c-1.07.68-1.67 1.39-1.94 2.3zM-232.4
      38.28h-13.8c-1.29 0-2.3.97-2.3 2.23v2.23H-230.1V40.5c0-1.26-1-2.23-2.3-2.23zM-225.26-17.45H-237a2.25
      2.25 0 00-2.3-2.23c-1.29 0-2.3.99-2.3 2.23h-11.74l-6.07 25.52c.79-.46 1.58-1 2.63-1 1.36
      0 2.24.83 2.92 1.38.68.56 1.16.85 1.45.85.3 0 .77-.28 1.45-.83.68-.55 1.56-1.36 2.92-1.36 1.34
      0 2.23.8 2.91 1.35.69.55 1.17.84 1.46.84.14 0 .33-.07.58-.21.24-.14.53-.35.87-.63.5-.4 1.14-.96
      1.99-1.22.28-.08.59-.13.93-.13 1.34 0 2.24.8 2.92 1.35.68.55 1.16.84 1.45.84.29 0 .76-.3 1.44-.85.69-.55
      1.57-1.36 2.93-1.36 1.35 0 2.24.81 2.92 1.37.34.27.63.49.87.63s.43.21.57.21c.3 0 .77-.3
      1.45-.85.68-.56 1.56-1.39 2.93-1.39 1.04 0 1.83.54 2.63 1l-6.08-25.5zM-235.88 33.82h-6.87a1.1 1.1
      0 00-1.15 1.11c0 .64.5 1.12 1.15 1.12h6.9a1.1 1.1 0 001.15-1.11c0-.64-.49-1.12-1.15-1.12h-.03zM-239.3
      9.34c-.14 0-.33.07-.57.2-.16.1-.37.27-.57.42v3.73h2.3V9.96c-.51-.38-.91-.62-1.16-.62z"></path>
    </g>
  </symbol>
  <symbol viewBox="226 226.19 60 59.62" id="icon-toy">
    <path d="M226 269.87l27.44 15.93v-23.34L226 246.52v23.35zm51.35-31.24v2.45c0 1.82-3.46
    3.29-7.73 3.29-4.27 0-7.73-1.47-7.73-3.29v-4.06h.02c.26 1.72 3.6 3.07 7.7 3.07 4.28 0
    7.73-1.47 7.73-3.28 0-1.82-3.45-3.29-7.72-3.29-.34 0-.68.01-1 .03l-4.98-2.89v3.09c0
    1.82-3.46 3.29-7.72 3.29-2.69 0-5.05-.58-6.44-1.47-.2-.2-.44-.4-.73-.58a1.8 1.8 0
    01-.56-1.24v-2.99l-4.81 2.8c-.35-.02-.7-.04-1.06-.04-4.26 0-7.72 1.47-7.72 3.3 0 1.8
    3.46 3.28 7.72 3.28 4.1 0 7.45-1.36 7.71-3.08h.02v4.06c0 1.82-3.45 3.3-7.73 3.3-4.26
    0-7.72-1.48-7.72-3.3v-2.42l-5.95 3.45 27.53 15.99 27.35-15.88-6.18-3.6zm-13.65 10.16c0
    1.82-3.46 3.29-7.72 3.29-4.27 0-7.73-1.47-7.73-3.29v-4.06h.02c.26 1.72 3.6 3.08 7.7
    3.08s7.45-1.36 7.71-3.08h.02v4.06zm-5.14 13.88v23.14L286 269.87v-23.14l-27.44
    15.94zm-2.64-29.9c4.27 0 7.72-1.48 7.72-3.3 0-1.8-3.45-3.28-7.72-3.28s-7.73 1.47-7.73
    3.29c0 1.81 3.46 3.28 7.73 3.28"/>
  </symbol>
  <symbol viewBox="56.52 50 14.96 27.72" id="icon-fb">
    <path d="M68.18 55.19c1.03.03 2 0 2.68-.3.4-.82.56-1.86.62-3-.19
    0-.06-.33-.2-.39-.04-.2-.28-.2-.32-.4-.27-.16-.45-.42-.72-.6l-2.16-.5c-.85.05-1.9-.1-2.58.1-2.62-.03-4
    1.13-5.26 2.4-.02.08 0 .2-.1.2-.58 1.58-.13 3.62-.21 5.58.1.43.1.96.2 1.4-1
    .29-2.2.38-3.4.5-.31.32-.18 1.08-.2 1.68.08.59.27 1.06.4 1.6.22.2.6.4.83.5.07.03.08.08.1.1.51.26
    1.46 0 2.28.1-.14 1.97.25 3.91 0 5.68 0 .32.29.38.2.8 0 .96-.06 1.98.21 2.68-.29.46-.5.99-.41
    1.8.12.01.11.16.1.3-.07.47.64.17.52.7.16.45-.43.18-.42.5v.89c.53.28 1.47.18 2.27.2.9-.42 2.19-.48
    2.79-1.2.45.24.91-.01 1.23-.2-.01-.31.28-.33.2-.7 0-.32-.16-.49-.1-.89v-2.89c-.2-2.3-.04-4.94-.3-7.18.88-.1
    1.91-.07 2.57-.4.36-.44.38-1.22.52-1.89.18-.23.22-.58.2-1 .2-.2.08-.72.11-1.1-.14-.59-.17-1.3-.82-1.38-.89-.24-2.05.6-3
    .3.05-1.14-.29-2.34 0-3.39.75-.18 1.45-.4 2.17-.6zm-3.82 4.78c.12.25.26.49.42.7.08.02.2 0 .2.1 1.2.06 2.2-.07 3.1-.3
    0 1-.27 1.73-.52 2.5-.66.04-1.47.3-1.96.2-.27.16-.37.5-.62.69-.05.44.14.5 0
    .8-.2.13-.05.6-.2.8v1.49c.08.28-.15.26-.1.5v3.48c-.1.28.14.26.1.5v2.99c.06.27-.14.8.1.9-.07.36-.41-.02-.82.1-.53.12-.93.36-1.55.4.11-.36.32-.63.3-1.1.06-.38-.36-.31-.5-.5.19-.63.55-1.1.71-1.78.2-.52.72-1.3.31-1.8-.52-.1-.52.3-.82.4-.02.08
    0 .2-.1.2-.03.08 0 .2-.1.2 0 .12-.16.06 0 0 .01-.08 0-.2.1-.2.02-.08 0-.2.1-.2v-.3a5.7 5.7 0
    00.83-2c.19-.27.28-.65.4-.99.16-.26.35-.87.11-1.2-.52.04-.8.3-.93.7-.32-.19.16-.43.1-.7.14-.22.17-.56.31-.8.2-.4.57-1.3 0-1.59-.43-.02-.6.21-.72.5-.21.2-.43.38-.52.7-.37-.07-.14-.73-.2-1.1-.07-.52.12-.9 0-1.2-.56-.8-2.03-.1-3.2-.3-.1-.3-.22-.98-.1-1.19
    1.04-.08 2.48.2 3.2-.2.02-.07 0-.2.1-.2.1-.72-.27-1-.52-1.4.24-.8.04-2.01.1-2.98.24-.14.34-.41.52-.6.11-.95.68-1.47.72-2.49-.27 0-.6-.05-.61.2-.3-.11-.39.48-.52.2-.11-.54.25-.63.31-1
    .6-.41 1.21-.82 1.86-1.2 1.74-.24 4.64-.44 6.08.2.05.62-.29.86-.2 1.5h-1.55c-1.1.24-1.99.67-3 1-.23.07-.27.33-.5.4-.04.4-.23.64-.32
    1-.08 1.42.13 2.58.1 3.97z"></path>
  </symbol>
  <symbol viewBox="53.12 53.19 21.77 21.33" id="icon-insta">
    <path d="M74.88 65.34c-.01-2.4-.34-4.8-.3-7.14-.02-.79-.09-1.53-.15-2.28-.1-.3-.12-.7-.16-1.06-.26-.17-.22-.64-.45-.83-.42-.24-1.2-.12-1.75-.22-.65-.03-1.25-.12-1.9-.16-1.93-.1-3.97-.07-6-.07-2
    0-3.94-.15-5.69-.38h-2.2c-.1 0-.1.1-.22.07-.6.04-1.08.2-1.6.3a2.8 2.8 0 01-.68.31c-.14.2-.52.15-.61.38-.19.21.19.45 0
    .6v.92c.17.13.03.58.08.83v.99c-.02 1.28.13 2.4.07 3.72.47 2.76.38 6.54.08 9.41.15.58.36 1.1.45 1.75.26.48.34 1.13.69
    1.52.5.2 1.23.18 1.9.23.38.1.66.3 1.13.3 2.85-.21 5.5-.16 8.43-.23 2.7.24 5.8.19 8.28-.23.19-.13.12-.53.22-.76-.05-.38.21-.45.23-.76.13-2.4.16-4.79.15-7.21zM61.9
    59.1c.76-.15 1.48-.34 2.43-.3.7.07 1.29.28 1.9.45.11.19-.25.55.15.69v.07c.06.02.15 0 .15.08.44.03.8.17 1.06.38.45.05.54.47
    1.14.3-.1.21-.08.52-.07.83.32 1.19.47 2.81.3 4.25-.17.17-.22.45-.3.69-.32.32-.49.78-.84
    1.06-.1.24-.25.4-.45.53-.12.22-.21.46-.46.53-.3.17-.58.01-.84-.07-.44.16-.9.3-1.21.6-.82-.1-1.65-.17-2.43-.3a1.94 1.94 0 00-.84-.3 2 2 0
    00-.83-.46c-.1-.13-.34-.12-.46-.23-.2-.03-.23-.23-.45-.23-.12-.41-.45-.62-.53-1.06-.23-.33-.31-.8-.46-1.22-.04-1.43.1-2.69.38-3.8.35-.58.78-1.08 1.14-1.66.25.02.36-.1.38-.3.3.05.43-.08.68-.08.26
    0 .27-.3.46-.45zm-1.67-2.73c-.12-.27-.07-.7-.08-1.06 0-.29.28-.28.3-.54 0-.07-.09-.05-.14-.07.12-.15.7-.1.83 0 .13.54-.35.45-.53.68.01.17.32.03.46.08.02.85-.06 1.5 0
    2.2h-.46c0 .23.23.23.46.23-.06.28.09.36.07.6-.23.16-.72.05-1.06.08-.1-.6.23-1.38.15-2.2zm-.68-1.6c.08 0 .13.02.15.08.18.25 0
    .68-.08.91-.17-.18-.02-.68-.07-.99zm.15 1.83c-.13-.07-.17-.24-.15-.46.13.07.16.24.15.46zm0 1.36c-.06.14-.08-.04-.08-.15.06-.14.08.05.08.15zm-.15.23c.17-.02.08.22.22.23 0
    .2-.28.18-.38.07.04-.1.12-.19.16-.3zm-2.36-1.22c0-.1.02-.2-.07-.22-.08-.74.13-1.42 0-1.98.25-.15.77-.04 1.14-.07v1.14c-.1.06-.2.1-.38.07-.06.28.32.13.38.3 0
    .86-.06 1.78.15 2.44-.57-.06-.9.1-1.44.07.1-.61-.02-1.43.53-1.6-.02-.13-.26-.04-.3-.15zm-.53 0c-.2.03-.22-.53-.08-.6.33 0 .25.5.08.6zm-.15
    1c.08-.32.03-.31.07-.69.23.01.26.77-.07.68zm.23-2.06c-.27.06-.28-.26-.16-.38.27-.05.28.27.16.38zm0-1.14c.03.16-.06.2-.08.3-.17.03-.08-.21-.23-.22.03-.1.2-.06.3-.08zm-.23 3.73c.15-.04.1.34-.08.22a.36.36
    0 00.08-.22zm-.68-3.73c.02.26-.44.32-.38 0h.38zm-1 .08c-.03.22-.32.18-.37.38-.22-.17.08-.47.38-.38zm-.45.76c.23-.2.45-.41.69-.6-.02-.13.07-.14.07-.24h.23c.1.38-.26.3-.3.53.02.13-.08.14-.08.23.02.34.12.59.08.99-.27
    0-.28.28-.61.23.02-.43-.13-.68-.08-1.14zm.08 3.26V57.3l.6-.53c.3.49.19 1.39.46 1.9-.27.15-.75.1-1.06.22zm18.22 11.09c-.1.95-.16 1.97-.38 2.8-2.89.13-6.02.01-8.88.16-.2.04-.27-.03-.23-.23-.25
    0-.26.25-.53.23.2-.34.44-.9.15-1.3-.8.02-.8.83-1.14 1.3-.68-.05-1.14.13-1.82.07.18-.7.75-1.02.9-1.74-.39-.55-.98.14-1.2.46-.2.48-.56.8-.76 1.29h-.99c.24-.47.49-.93.76-1.37.17-.51.62-.74.68-1.37-.16-.28-.42-.03-.68 0-.12.18-.27.34-.38.53-.23.38-.5.72-.69
    1.14-.18.21-.33 0-.53.23-.38.27-.58.74-.98.99-.18-.06.04-.36.15-.38.04-.18-.1-.55.07-.61.07-.37.22-.65.38-.91.12-.74.52-1.2.69-1.9-.56.1-.68.65-.99.99-.21.44-.54.77-.68 1.29-.18-.13-.03-.58-.08-.84.12-.58.3-1.11.38-1.74.13-.22.17-.54.23-.84.17-.2.04-.6-.08-.76-.22.03-.37.14-.45.3-.2-.02-.2.51-.3.31-.05-2.59-.46-4.81-.46-7.44.02-.33-.19-.42-.23-.68 1.63.03
    3.12.09 4.78.23-.09.14-.2.25-.3.38-.15.07-.23.17-.38.3-.6 1.65-.98 3.98-.6 6.15.22.58.58 1.03.98 1.44.9.49 1.63 1.15 2.5 1.67 1.7.36 3.84.37 5.55 0 .23-.12.48-.22.68-.38 1.37-1.24 2.75-2.46 2.96-4.86v-1.36c-.2-1.6-.69-2.9-1.75-3.65.34-.22 1.1.05
    1.67.08h.69c.4-.03.93-.06 1.44 0 .15.19.11.54.23.76-.06 1.68-.2 3.3-.15 5.09.1.45.12.98.23 1.44-.1.97-.24 1.89-.46 2.73zm.38-11.16c-.64-.12-1.23-.29-1.9-.38.07-.33.8-.01.99-.23.38-.22.3-.92.3-1.5.03-.36.12-.65.08-1.07-.4-.95-1.78-.42-2.89-.46-.22.72-.47 1.8-.3 2.66.17.49 1.02.3 1.52.46-.14.33-.69.05-.99.07-.3-.08-.7-.05-.99-.15-2.28.08-4.28
    0-6.52.15.11-1.25.06-2.46-.08-3.64h3.11c-.34.36-.91.5-1.29.83-.44.25-.86.5-1.14.91.25.14.54-.24.76-.38.36-.07.48-.38.84-.45.42-.44 1.1-.63 1.67-.91.37-.02.7.01.98.07 1.29.01 2.46.13 3.8.08.61.15 1.45.07 1.97.3.11.3.23.58.3.92.02.98-.14 1.81-.22 2.72zm-5.85-3.72c.11-.05
    0-.1 0 0zm0 0c-.52.15-1.01.35-1.36.68.48-.2 1.06-.3 1.36-.68zm1.07.6c.1-.04-.01-.09 0 0zm-1.75.92c.73-.16 1.18-.6 1.75-.91-.44.01-.6.31-1 .37-.2.22-.6.26-.75.54zm-.68-.84c-.11.05 0
    .1 0 0zm-.69.6c.11-.04 0-.08 0 0zm-.07.08c.06.02.07-.03.07-.07-.06-.02-.07.03-.07.07zm-.08.08c.07.01.07-.03.08-.08-.07 0-.07.03-.08.08zm-.83.6c.34-.13.61-.34.83-.6-.35.13-.61.35-.83.6zm2.27
    1c.54-.05.75-.42 1.22-.54.28-.3.78-.38.99-.76-.56.03-.77.4-1.22.54-.28.3-.75.4-.99.76zm-2.27-1c-.32-.07-.02.23 0 0zm-.54.39c.03.02.12-.04.08-.08-.02-.02-.12.04-.07.08zm2.81.6c-.1.05.01.1 0
    0zm-1.14 1.83c-.22-.24-.67-.24-.98-.38-.7-.04-1.23.09-1.75.23l-.9.45c-.27.17-.45.42-.77.53-.2.23-.35.51-.68.6 0 .23-.18.29-.3.39-.1.11-.1.31-.23.38-.01.12.03.29-.08.3.1 1.51.3 2.95.68
    4.18.3.62.98.84 1.45 1.29.58.3 1.32.44 2.12.53.28-.05.55-.1.91-.08 1.21-.2 2.1-.73 2.81-1.44.1-.28.25-.5.46-.68-.26-.67.3-1.1.45-1.6 0-1.33-.2-2.47-.6-3.4-.26-.58-.92-.76-1.37-1.14-.06-.02-.15
    0-.15-.08-.27-.14-.73-.24-1.07-.08zm-3.41 4.32c-.11-.06-.11-.24-.15-.38.25-.07.12.24.15.38zm.08.3c.04-.1.07 0 .07.08-.04.12-.08 0-.07-.07zm.45-2.04c.02-.09.08-.05.08 0-.02.08-.08.04-.08
    0zm1.67-2.13c-.2.26.04.58.08.84-.3-.04-.58-.89-.08-.84zm.38 3.95c-.04-.04.06-.1.08-.08.04.04-.06.1-.08.08zm.76 2.88c.03-.1.07.01.15 0-.02.1-.15.08-.15
    0zm2.2-2.58c-.23-.05-.14.21-.38.16.07-.16.12-.34.23-.46.13.02.17.13.15.3zm-1.14-3.8c.21.13.44.22.6.39.1.22.25.36.39.53.06.77.18 1.49.15 2.35-.26.1-.44.27-.68.38-.78 0-1.36-.21-1.9-.45l-.53-.76v-1.06c.17-.19.32-.4.45-.61.23-.13.51-.2.46-.6-.04-.07-.08-.13-.08-.24.16.05.25.16.38.23.32.02.41-.2.76-.15z"></path>
  </symbol>
  <symbol viewBox="52.253 53.771 23.494 20.168" id="icon-tw">
    <path d="M75.706 57.855c-.227-.366-.909-.277-1.407-.371h-1.112c.142-.353.343-.646.52-.963.056-.438.254-.734.223-1.26.129-.167.176-.417.296-.593.104-.144.242-.477.074-.667-.051-.221-.295-.249-.593-.222a.515.515
    0 00-.222.148c-.448.433-.778 1.014-1.261 1.408-.009.008-.062 0-.074 0-.087.005-.033.046-.075.074-.146.098-.257.152-.369.223-.284.176-.547.445-.891.519-.529-.211-1.156-.326-1.852-.37-1.157.102-2.303.215-3.038.741-.911.35-1.477
    1.042-2.149 1.63-.049.32-.342.398-.37.741-.005.045-.012.088-.073.074.043.241-.051.345-.074.519-.001.133.199.431 0
    .52-.822-.12-1.485-.63-2.149-.964-.718-.36-1.468-.604-2.074-1.111-.716-.322-1.26-.816-1.778-1.334-.208-.312-.542-.496-.667-.89-.379-.164-.175-.912-.741-.889-.315-.043-.345.199-.444.37-.07.227-.361.232-.371.519-.004.046-.011.088-.074.075-.17
    1.089-.527 1.992-.519 3.26.129.415.35.738.593 1.038-.418.051-.716.222-.89.519-.06 1.073.378 1.647.742 2.297.134.384.352.685.593.963.017.229.206.288.296.445.019.105.123.125.149.223-.04.105.289.18.073.221-.413.131-1.016.07-1.259.371-.109.279-.109.833 0
    1.111.034.237.282.262.296.519.499.417 1.082.747 1.631 1.112.574.166 1.211.271 1.852.37-.102.343-.338.551-.593.741-.78.381-1.849.474-2.742.74-.555.038-.956.23-1.556.223-.333.127-.854.075-1.112.223-.122.068-.102.096-.222.221-.134.412.111.74.444.89-.005.253.219.276.371.371.089.183.254.29.445.37.544.468
    1.268.759 1.927 1.112.83.183 1.648.376 2.52.519.896.116 1.901.124 2.816.222h.963c.511.132 1.23.054 1.853.074.095-.102.322-.073.519-.074.522-.269 1.196-.385 1.631-.74.574-.241.989-.642 1.557-.89.866-.765 1.937-1.324 2.519-2.37.205-.189.351-.438.445-.74.265-.156.385-.454.593-.667.404-.41.706-.924
    1.037-1.4.319-.496.576-1.054.89-1.556-.01-.405.306-.484.296-.89.193-.226.177-.662.371-.88-.033-.255.029-.415.074-.594.047-1.281-.047-2.422-.297-3.407.588-.155 1.181-.302 1.631-.593.52-.206.993-.603.808-1.281zm-3.408 4.076c-.153.859-.615 1.41-1.038 2.001.059.379-.104.538-.073.889a4.303
    4.303 0 00-.371 1.037c-.203.267-.332.606-.519.89-.366.548-.777 1.051-1.186 1.557-.378.56-.912.965-1.334
    1.481-.42.493-.942.885-1.407 1.334-.474.17-.89.396-1.26.667a5.06 5.06 0 00-.667.296c-.177.146-.499.145-.668.29-1.086.147-2.3.17-3.555.148-1.031-.105-2.115-.159-3.039-.371-.922-.189-1.511-.712-2.297-1.037.153-.242.634-.154.963-.222.031-.166.394-.003.444-.149.257.06.285-.109.52-.07.563-.201 1.23-.302
    1.705-.593.282-.138.406-.434.667-.593.033-.189.104-.341.222-.444.047-.275.201-.441.148-.815.111-.21.299-.343.296-.667-.074-.147-.128-.316-.296-.371-.026-.196-.377-.067-.444-.222-.255.032-.416-.029-.593-.075-.154-.043-.487.092-.519-.073-.842-.023-1.3-.43-1.853-.74.431-.262 1.032-.353
    1.333-.742.516-.076 1.058-.129 1.112-.666 0-.717-.771-.661-1.333-.815-.773-.66-1.194-1.672-1.779-2.52.238-.157.564-.226.741-.444.454.058.54-.251.667-.52.019-.488-.333-.605-.593-.815a3.49 3.49 0 01-.667-.74c-.003-.818-.021-1.652.074-2.372.063-.014.07.029.074.074.227.441.559.775.815
    1.186.532.357.925.853 1.556 1.112.452.413 1.108.621 1.557 1.038.601.263 1.158.57 1.704.889.669.194 1.056.673 2.001.593.198-.098.394-.199.593-.297.258-.456-.059-1.079.147-1.63.255-.659.797-1.031 1.26-1.481.29-.155.555-.335.815-.519.347-.098.675-.216.964-.37a6.223 6.223 0
    001.037-.148h1.26c.244.052.475.119.74.148.209.137.38.313.666.371.789.693 1.271 1.696 1.409 3.039-.122.484.053.873.001 1.481zm.296-5.632c-.129.34-.23.707-.593.815-.017-.105-.122-.125-.147-.222-.012-.209.209-.186.296-.296.162-.085.245-.248.444-.297-.007-.09.108-.046 0
    0zm-5.484 3.038c.163.135.284.31.519.371.101.221.314.327.594.37.047-.15.346-.049.37-.222.174-.023.166-.229.296-.297-.018-.55-.129-1.006-.37-1.333-.758-.423-1.676.039-1.409 1.111z"></path>
  </symbol>
</svg>
